<svg width="19" height="19" viewBox="0 0 19 19" fill="none" xmlns="http://www.w3.org/2000/svg">
<path d="M4.34181 6.76482C3.88059 6.76482 3.48681 6.59898 3.16046 6.26728C2.83474 5.93623 2.67188 5.53633 2.67188 5.06756C2.67188 4.59879 2.83474 4.19888 3.16046 3.86783C3.48681 3.53614 3.88059 3.37029 4.34181 3.37029C4.80303 3.37029 5.19681 3.53614 5.52316 3.86783C5.84888 4.19888 6.01174 4.59879 6.01174 5.06756C6.01174 5.53633 5.84888 5.93623 5.52316 6.26728C5.19681 6.59898 4.80303 6.76482 4.34181 6.76482ZM2.67188 18.2335C2.40151 18.2335 2.17504 18.1404 1.99246 17.9542C1.80925 17.7686 1.71764 17.5384 1.71764 17.2636C1.24052 17.2636 0.834964 17.0939 0.500978 16.7545C0.166993 16.415 0 16.0028 0 15.5179V10.4746H2.67188V9.74717C2.67188 9.18141 2.86273 8.70844 3.24443 8.32825C3.62613 7.94871 4.0953 7.75894 4.65194 7.75894C4.95412 7.75894 5.23657 7.8236 5.49931 7.95291C5.76141 8.08223 5.99583 8.26004 6.20259 8.48634L7.37154 9.79566C7.49877 9.92497 7.62218 10.0462 7.74178 10.1594C7.86074 10.2725 7.99179 10.3776 8.13493 10.4746H14.5522V2.52165C14.5522 2.23069 14.4488 1.98015 14.2421 1.77001C14.0353 1.55987 13.7888 1.4548 13.5026 1.4548C13.3753 1.4548 13.256 1.48293 13.1447 1.53918C13.0334 1.59608 12.93 1.6811 12.8346 1.79425L11.6418 3.00659C11.7213 3.28138 11.7372 3.55198 11.6895 3.81837C11.6418 4.0854 11.5464 4.33207 11.4032 4.55838L9.11303 2.1822C9.33569 2.03672 9.57425 1.94361 9.82871 1.90288C10.0832 1.86279 10.3376 1.89124 10.5921 1.98823L11.7849 0.775894C12.0076 0.549591 12.2662 0.3637 12.5607 0.21822C12.8546 0.0727399 13.1686 0 13.5026 0C14.2023 0 14.7908 0.246346 15.2679 0.739039C15.745 1.23238 15.9836 1.82658 15.9836 2.52165V10.4746H18.1306V15.5179C18.1306 16.0028 17.9636 16.415 17.6297 16.7545C17.2957 17.0939 16.8901 17.2636 16.413 17.2636C16.413 17.5384 16.3217 17.7686 16.1391 17.9542C15.9559 18.1404 15.7291 18.2335 15.4588 18.2335H2.67188ZM1.71764 15.8088H16.413C16.4925 15.8088 16.5603 15.7807 16.6163 15.7245C16.6716 15.6676 16.6993 15.5987 16.6993 15.5179V11.9294H1.43137V15.5179C1.43137 15.5987 1.45936 15.6676 1.51534 15.7245C1.57069 15.7807 1.63812 15.8088 1.71764 15.8088Z" fill="#1981C0"/>
</svg>
