<svg width="19" height="16" viewBox="0 0 19 16" fill="none" xmlns="http://www.w3.org/2000/svg">
<path d="M2.88654 15.441H1.975L1.33692 12.9705H0V7.78228C0 7.16464 0.212692 6.63965 0.638077 6.2073C1.06346 5.77495 1.58 5.55877 2.18769 5.55877H2.43077V2.22351C2.43077 1.60587 2.64346 1.08087 3.06885 0.648524C3.49423 0.216175 4.01077 0 4.61846 0H13.6123C14.22 0 14.7365 0.216175 15.1619 0.648524C15.5873 1.08087 15.8 1.60587 15.8 2.22351V5.55877H16.0431C16.6508 5.55877 17.1673 5.77495 17.5927 6.2073C18.0181 6.63965 18.2308 7.16464 18.2308 7.78228V12.9705H16.8938L16.2558 15.441H15.3442L14.7062 12.9705H3.52462L2.88654 15.441ZM10.0269 5.55877H13.9769V2.22351C13.9769 2.12057 13.9417 2.03328 13.8712 1.96163C13.7999 1.88916 13.7136 1.85292 13.6123 1.85292H10.0269V5.55877ZM4.25385 5.55877H8.20385V1.85292H4.61846C4.51718 1.85292 4.43129 1.88916 4.3608 1.96163C4.2895 2.03328 4.25385 2.12057 4.25385 2.22351V5.55877ZM1.82308 11.1175H16.4077V7.78228C16.4077 7.67934 16.3724 7.59164 16.302 7.51917C16.2307 7.44752 16.1444 7.4117 16.0431 7.4117H2.18769C2.08641 7.4117 2.00052 7.44752 1.93003 7.51917C1.85873 7.59164 1.82308 7.67934 1.82308 7.78228V11.1175Z" fill="#1981C0"/>
</svg>
