<svg width="10" height="17" viewBox="0 0 10 17" fill="none" xmlns="http://www.w3.org/2000/svg">
<path d="M-2.10478e-05 1.55598C-2.10292e-05 1.12377 0.148817 0.75638 0.446496 0.453828C0.744175 0.151276 1.10564 -3.66521e-07 1.5309 -3.47628e-07L7.82467 -6.80142e-08C8.24993 -4.91214e-08 8.61139 0.151276 8.90907 0.453828C9.20675 0.756381 9.35559 1.12377 9.35559 1.55598L9.35559 14.8683C9.35559 15.3005 9.20675 15.6679 8.90907 15.9704C8.61139 16.273 8.24993 16.4243 7.82467 16.4243L1.5309 16.4243C1.10564 16.4243 0.744174 16.273 0.446495 15.9704C0.148816 15.6679 -2.16389e-05 15.3005 -2.16203e-05 14.8683L-2.10478e-05 1.55598ZM1.27574 1.55598L1.27574 14.8683C1.27574 14.9259 1.30409 14.9835 1.36079 15.0412C1.4175 15.0988 1.4742 15.1276 1.5309 15.1276L7.82467 15.1276C7.88137 15.1276 7.93807 15.0988 7.99477 15.0412C8.05147 14.9835 8.07982 14.9259 8.07982 14.8683L8.07982 12.3182L4.99673 12.3182L4.99673 11.0215L8.07983 11.0215L8.07983 8.86046L4.99673 8.86046L4.99673 7.56381L8.07983 7.56381L8.07983 5.40272L4.99673 5.40272L4.99673 4.10607L8.07983 4.10607L8.07983 1.55598C8.07983 1.49835 8.05147 1.44073 7.99477 1.3831C7.93807 1.32547 7.88137 1.29665 7.82467 1.29665L1.5309 1.29665C1.4742 1.29665 1.4175 1.32547 1.3608 1.3831C1.3041 1.44072 1.27574 1.49835 1.27574 1.55598Z" fill="#1981C0"/>
</svg>
